<?xml version="1.0" standalone="no"?>
<!DOCTYPE svg PUBLIC "-//W3C//DTD SVG 20010904//EN"
 "http://www.w3.org/TR/2001/REC-SVG-20010904/DTD/svg10.dtd">
<svg version="1.0" xmlns="http://www.w3.org/2000/svg"
 width="698.000000pt" height="1280.000000pt" viewBox="0 0 698.000000 1280.000000"
 preserveAspectRatio="xMidYMid meet">
<metadata>
Created by potrace 1.15, written by Peter Selinger 2001-2017
</metadata>
<g transform="translate(0.000000,1280.000000) scale(0.100000,-0.100000)"
fill="#000000" stroke="none">
<path d="M875 12785 c-188 -34 -328 -109 -477 -253 -126 -122 -210 -257 -268
-432 -56 -165 -60 -226 -60 -867 0 -498 -2 -583 -14 -583 -8 0 -24 -12 -35
-26 -21 -27 -21 -27 -21 -1259 0 -1232 0 -1232 21 -1259 11 -14 27 -26 35 -26
12 0 14 -481 14 -3547 0 -3893 -4 -3644 60 -3833 59 -177 144 -313 273 -437
138 -133 299 -216 477 -249 111 -20 5099 -20 5210 0 178 33 339 116 477 249
154 147 248 317 306 547 l21 85 3 4023 3 4022 24 0 c59 0 56 -24 56 415 0 439
3 415 -55 415 l-24 0 -4 1068 c-3 1045 -3 1069 -24 1152 -24 98 -58 192 -98
270 -105 208 -312 401 -513 479 -169 65 1 61 -2786 60 -2024 -1 -2545 -3
-2601 -14z m4716 -370 c64 -34 89 -128 50 -191 -20 -32 -74 -64 -110 -64 -40
0 -90 28 -111 62 -24 40 -27 114 -4 147 40 56 116 76 175 46z m-489 -72 c40
-36 8 -113 -49 -113 -55 0 -85 70 -46 112 20 22 70 23 95 1z m-3117 -28 c65
-64 -12 -173 -93 -131 -34 17 -42 34 -42 81 0 67 87 99 135 50z m2689 -34 c49
-16 38 -27 -44 -40 -89 -15 -2201 -15 -2290 0 -106 17 -99 33 20 49 30 4 555
7 1165 6 878 -1 1118 -4 1149 -15z m1960 -597 l46 -7 0 -5362 0 -5362 -142 -6
c-187 -9 -5919 -9 -6105 0 l-143 6 0 5363 0 5363 33 4 c54 7 6261 7 6311 1z
m-2309 -10971 c176 -94 170 -342 -10 -424 -38 -18 -85 -19 -828 -19 -869 0
-827 -3 -895 63 -51 48 -74 101 -74 166 0 115 69 205 177 232 17 4 381 7 810
6 779 -2 780 -2 820 -24z"/>
</g>
</svg>
